<svg version="1.2" xmlns="http://www.w3.org/2000/svg" viewBox="0 0 35 34" width="35" height="34">
	<title>Forma 1</title>
	<style>
		.s0 { fill: #ffffff } 
	</style>
	<path id="Forma 1" class="s0" d="m17.5 1.4c-8.6 0-15.6 7-15.6 15.6 0 8.6 7 15.6 15.6 15.6 8.6 0 15.6-7 15.6-15.6 0-8.6-7-15.6-15.6-15.6zm7 12q0 0.3 0 0.5c0 4.7-3.6 10.2-10.3 10.2-2 0-3.9-0.6-5.5-1.6q0.4 0.1 0.9 0.1c1.7 0 3.2-0.6 4.5-1.6-1.6 0-2.9-1-3.4-2.5q0.3 0.1 0.7 0.1 0.5 0 0.9-0.1c-1.6-0.4-2.9-1.8-2.9-3.6q0 0 0 0 0.8 0.4 1.7 0.4c-1-0.6-1.6-1.7-1.6-3 0-0.6 0.1-1.2 0.4-1.8 1.8 2.2 4.5 3.6 7.5 3.8q-0.1-0.4-0.1-0.8c0-2 1.6-3.6 3.6-3.6 1 0 1.9 0.4 2.6 1.1q1.2-0.2 2.3-0.9c-0.3 0.9-0.9 1.6-1.6 2q1.1-0.1 2.1-0.5-0.8 1.1-1.8 1.8z"/>
</svg>