<svg version="1.2" xmlns="http://www.w3.org/2000/svg" viewBox="0 0 41 41" width="41" height="41">
	<title>Forma 1</title>
	<style>
		.s0 { fill: #ffffff } 
	</style>
	<path id="Forma 1" class="s0" d="m34.8 12c-4.6-8-14.8-10.7-22.8-6.1-8 4.6-10.7 14.8-6.1 22.8 4.6 7.9 14.8 10.7 22.8 6.1 7.9-4.6 10.7-14.8 6.1-22.8zm-7.8 19.9c-6.4 3.7-14.5 1.5-18.2-4.9-3.7-6.4-1.5-14.5 4.9-18.2 6.3-3.7 14.5-1.5 18.2 4.9 3.7 6.4 1.5 14.5-4.9 18.2zm-0.7-12.2l-8.7-5.1c-0.8-0.5-1.4-0.1-1.4 0.8v10.1c0 0.9 0.7 1.3 1.5 0.8l8.6-5c0.8-0.4 0.8-1.2 0-1.6z"/>
</svg>